<mxfile host="app.diagrams.net" modified="2023-08-12T13:25:48.661Z" agent="Mozilla/5.0 (Macintosh; Intel Mac OS X 10_15_7) AppleWebKit/605.1.15 (KHTML, like Gecko) Version/15.3 Safari/605.1.15" etag="HDPTy3zzx-NHKxSrruU6" version="21.6.6" type="github">
  <diagram name="Page-1" id="O0G5kvHubYkrOMf2x8nc">
    <mxGraphModel dx="1265" dy="792" grid="1" gridSize="10" guides="1" tooltips="1" connect="1" arrows="1" fold="1" page="1" pageScale="1" pageWidth="3300" pageHeight="4681" math="0" shadow="0">
      <root>
        <mxCell id="0" />
        <mxCell id="1" parent="0" />
        <mxCell id="ZAy9PFKj7g4toUoKisVz-23" style="rounded=0;orthogonalLoop=1;jettySize=auto;html=1;entryX=0;entryY=0.5;entryDx=0;entryDy=0;exitX=1;exitY=0.5;exitDx=0;exitDy=0;endSize=0;startSize=0;" edge="1" parent="1" source="ZAy9PFKj7g4toUoKisVz-1" target="ZAy9PFKj7g4toUoKisVz-17">
          <mxGeometry relative="1" as="geometry" />
        </mxCell>
        <mxCell id="ZAy9PFKj7g4toUoKisVz-24" style="rounded=0;orthogonalLoop=1;jettySize=auto;html=1;entryX=0;entryY=0.5;entryDx=0;entryDy=0;endSize=0;startSize=0;" edge="1" parent="1" source="ZAy9PFKj7g4toUoKisVz-1" target="ZAy9PFKj7g4toUoKisVz-19">
          <mxGeometry relative="1" as="geometry" />
        </mxCell>
        <mxCell id="ZAy9PFKj7g4toUoKisVz-25" style="rounded=0;orthogonalLoop=1;jettySize=auto;html=1;entryX=0;entryY=0.5;entryDx=0;entryDy=0;endSize=0;startSize=0;" edge="1" parent="1" source="ZAy9PFKj7g4toUoKisVz-1" target="ZAy9PFKj7g4toUoKisVz-18">
          <mxGeometry relative="1" as="geometry" />
        </mxCell>
        <mxCell id="ZAy9PFKj7g4toUoKisVz-26" style="rounded=0;orthogonalLoop=1;jettySize=auto;html=1;entryX=0;entryY=0.5;entryDx=0;entryDy=0;endSize=0;startSize=0;" edge="1" parent="1" source="ZAy9PFKj7g4toUoKisVz-1" target="ZAy9PFKj7g4toUoKisVz-20">
          <mxGeometry relative="1" as="geometry" />
        </mxCell>
        <mxCell id="ZAy9PFKj7g4toUoKisVz-27" style="rounded=0;orthogonalLoop=1;jettySize=auto;html=1;entryX=0;entryY=0.5;entryDx=0;entryDy=0;endSize=0;startSize=0;" edge="1" parent="1" source="ZAy9PFKj7g4toUoKisVz-1" target="ZAy9PFKj7g4toUoKisVz-22">
          <mxGeometry relative="1" as="geometry" />
        </mxCell>
        <mxCell id="ZAy9PFKj7g4toUoKisVz-28" style="rounded=0;orthogonalLoop=1;jettySize=auto;html=1;entryX=0;entryY=0.5;entryDx=0;entryDy=0;endSize=0;startSize=0;" edge="1" parent="1" source="ZAy9PFKj7g4toUoKisVz-1" target="ZAy9PFKj7g4toUoKisVz-21">
          <mxGeometry relative="1" as="geometry" />
        </mxCell>
        <mxCell id="ZAy9PFKj7g4toUoKisVz-1" value="" style="ellipse;whiteSpace=wrap;html=1;aspect=fixed;fillColor=#1CF0FF;strokeColor=#006EAF;fontColor=#ffffff;" vertex="1" parent="1">
          <mxGeometry x="180" y="160" width="60" height="60" as="geometry" />
        </mxCell>
        <mxCell id="ZAy9PFKj7g4toUoKisVz-35" style="rounded=0;orthogonalLoop=1;jettySize=auto;html=1;entryX=0;entryY=0.5;entryDx=0;entryDy=0;endSize=0;startSize=0;" edge="1" parent="1" source="ZAy9PFKj7g4toUoKisVz-6" target="ZAy9PFKj7g4toUoKisVz-17">
          <mxGeometry relative="1" as="geometry" />
        </mxCell>
        <mxCell id="ZAy9PFKj7g4toUoKisVz-36" style="rounded=0;orthogonalLoop=1;jettySize=auto;html=1;entryX=0;entryY=0.5;entryDx=0;entryDy=0;endSize=0;startSize=0;" edge="1" parent="1" source="ZAy9PFKj7g4toUoKisVz-6" target="ZAy9PFKj7g4toUoKisVz-19">
          <mxGeometry relative="1" as="geometry" />
        </mxCell>
        <mxCell id="ZAy9PFKj7g4toUoKisVz-37" style="rounded=0;orthogonalLoop=1;jettySize=auto;html=1;entryX=0;entryY=0.5;entryDx=0;entryDy=0;endSize=0;startSize=0;" edge="1" parent="1" source="ZAy9PFKj7g4toUoKisVz-6" target="ZAy9PFKj7g4toUoKisVz-18">
          <mxGeometry relative="1" as="geometry" />
        </mxCell>
        <mxCell id="ZAy9PFKj7g4toUoKisVz-38" style="rounded=0;orthogonalLoop=1;jettySize=auto;html=1;entryX=0;entryY=0.5;entryDx=0;entryDy=0;endSize=0;startSize=0;" edge="1" parent="1" source="ZAy9PFKj7g4toUoKisVz-6" target="ZAy9PFKj7g4toUoKisVz-20">
          <mxGeometry relative="1" as="geometry" />
        </mxCell>
        <mxCell id="ZAy9PFKj7g4toUoKisVz-39" style="rounded=0;orthogonalLoop=1;jettySize=auto;html=1;entryX=0;entryY=0.5;entryDx=0;entryDy=0;endSize=0;startSize=0;" edge="1" parent="1" source="ZAy9PFKj7g4toUoKisVz-6" target="ZAy9PFKj7g4toUoKisVz-22">
          <mxGeometry relative="1" as="geometry" />
        </mxCell>
        <mxCell id="ZAy9PFKj7g4toUoKisVz-40" style="rounded=0;orthogonalLoop=1;jettySize=auto;html=1;entryX=0;entryY=0.5;entryDx=0;entryDy=0;endSize=0;startSize=0;" edge="1" parent="1" source="ZAy9PFKj7g4toUoKisVz-6" target="ZAy9PFKj7g4toUoKisVz-21">
          <mxGeometry relative="1" as="geometry" />
        </mxCell>
        <mxCell id="ZAy9PFKj7g4toUoKisVz-6" value="" style="ellipse;whiteSpace=wrap;html=1;aspect=fixed;fillColor=#1CF0FF;strokeColor=#006EAF;fontColor=#ffffff;" vertex="1" parent="1">
          <mxGeometry x="180" y="320" width="60" height="60" as="geometry" />
        </mxCell>
        <mxCell id="ZAy9PFKj7g4toUoKisVz-29" style="rounded=0;orthogonalLoop=1;jettySize=auto;html=1;entryX=0;entryY=0.5;entryDx=0;entryDy=0;endSize=0;startSize=0;" edge="1" parent="1" source="ZAy9PFKj7g4toUoKisVz-7" target="ZAy9PFKj7g4toUoKisVz-17">
          <mxGeometry relative="1" as="geometry" />
        </mxCell>
        <mxCell id="ZAy9PFKj7g4toUoKisVz-30" style="rounded=0;orthogonalLoop=1;jettySize=auto;html=1;entryX=0;entryY=0.5;entryDx=0;entryDy=0;endSize=0;startSize=0;" edge="1" parent="1" source="ZAy9PFKj7g4toUoKisVz-7" target="ZAy9PFKj7g4toUoKisVz-19">
          <mxGeometry relative="1" as="geometry" />
        </mxCell>
        <mxCell id="ZAy9PFKj7g4toUoKisVz-31" style="rounded=0;orthogonalLoop=1;jettySize=auto;html=1;entryX=0;entryY=0.5;entryDx=0;entryDy=0;endSize=0;startSize=0;" edge="1" parent="1" source="ZAy9PFKj7g4toUoKisVz-7" target="ZAy9PFKj7g4toUoKisVz-18">
          <mxGeometry relative="1" as="geometry" />
        </mxCell>
        <mxCell id="ZAy9PFKj7g4toUoKisVz-32" style="rounded=0;orthogonalLoop=1;jettySize=auto;html=1;entryX=0;entryY=0.5;entryDx=0;entryDy=0;endSize=0;startSize=0;" edge="1" parent="1" source="ZAy9PFKj7g4toUoKisVz-7" target="ZAy9PFKj7g4toUoKisVz-20">
          <mxGeometry relative="1" as="geometry" />
        </mxCell>
        <mxCell id="ZAy9PFKj7g4toUoKisVz-33" style="rounded=0;orthogonalLoop=1;jettySize=auto;html=1;entryX=0;entryY=0.5;entryDx=0;entryDy=0;endSize=0;startSize=0;" edge="1" parent="1" source="ZAy9PFKj7g4toUoKisVz-7" target="ZAy9PFKj7g4toUoKisVz-22">
          <mxGeometry relative="1" as="geometry" />
        </mxCell>
        <mxCell id="ZAy9PFKj7g4toUoKisVz-34" style="rounded=0;orthogonalLoop=1;jettySize=auto;html=1;entryX=0;entryY=0.5;entryDx=0;entryDy=0;endSize=0;startSize=0;" edge="1" parent="1" source="ZAy9PFKj7g4toUoKisVz-7" target="ZAy9PFKj7g4toUoKisVz-21">
          <mxGeometry relative="1" as="geometry" />
        </mxCell>
        <mxCell id="ZAy9PFKj7g4toUoKisVz-7" value="" style="ellipse;whiteSpace=wrap;html=1;aspect=fixed;fillColor=#1CF0FF;strokeColor=#006EAF;fontColor=#ffffff;" vertex="1" parent="1">
          <mxGeometry x="180" y="240" width="60" height="60" as="geometry" />
        </mxCell>
        <mxCell id="ZAy9PFKj7g4toUoKisVz-9" value="" style="ellipse;whiteSpace=wrap;html=1;aspect=fixed;fillColor=#000000;strokeColor=#000000;fontColor=#ffffff;" vertex="1" parent="1">
          <mxGeometry x="395" y="532" width="10" height="10" as="geometry" />
        </mxCell>
        <mxCell id="ZAy9PFKj7g4toUoKisVz-10" value="" style="ellipse;whiteSpace=wrap;html=1;aspect=fixed;fillColor=#000000;strokeColor=#000000;fontColor=#ffffff;" vertex="1" parent="1">
          <mxGeometry x="395" y="547" width="10" height="10" as="geometry" />
        </mxCell>
        <mxCell id="ZAy9PFKj7g4toUoKisVz-11" value="" style="ellipse;whiteSpace=wrap;html=1;aspect=fixed;fillColor=#000000;strokeColor=#000000;fontColor=#ffffff;" vertex="1" parent="1">
          <mxGeometry x="395" y="562" width="10" height="10" as="geometry" />
        </mxCell>
        <mxCell id="ZAy9PFKj7g4toUoKisVz-41" style="rounded=0;orthogonalLoop=1;jettySize=auto;html=1;entryX=0;entryY=0.5;entryDx=0;entryDy=0;endSize=0;startSize=0;" edge="1" parent="1" source="ZAy9PFKj7g4toUoKisVz-14" target="ZAy9PFKj7g4toUoKisVz-21">
          <mxGeometry relative="1" as="geometry" />
        </mxCell>
        <mxCell id="ZAy9PFKj7g4toUoKisVz-42" style="rounded=0;orthogonalLoop=1;jettySize=auto;html=1;entryX=0;entryY=0.5;entryDx=0;entryDy=0;endSize=0;startSize=0;" edge="1" parent="1" source="ZAy9PFKj7g4toUoKisVz-14" target="ZAy9PFKj7g4toUoKisVz-22">
          <mxGeometry relative="1" as="geometry" />
        </mxCell>
        <mxCell id="ZAy9PFKj7g4toUoKisVz-43" style="rounded=0;orthogonalLoop=1;jettySize=auto;html=1;entryX=0;entryY=0.5;entryDx=0;entryDy=0;endSize=0;startSize=0;" edge="1" parent="1" source="ZAy9PFKj7g4toUoKisVz-14" target="ZAy9PFKj7g4toUoKisVz-20">
          <mxGeometry relative="1" as="geometry" />
        </mxCell>
        <mxCell id="ZAy9PFKj7g4toUoKisVz-44" style="rounded=0;orthogonalLoop=1;jettySize=auto;html=1;entryX=0;entryY=0.5;entryDx=0;entryDy=0;endSize=0;startSize=0;" edge="1" parent="1" source="ZAy9PFKj7g4toUoKisVz-14" target="ZAy9PFKj7g4toUoKisVz-18">
          <mxGeometry relative="1" as="geometry" />
        </mxCell>
        <mxCell id="ZAy9PFKj7g4toUoKisVz-45" style="rounded=0;orthogonalLoop=1;jettySize=auto;html=1;entryX=0;entryY=0.5;entryDx=0;entryDy=0;endSize=0;startSize=0;" edge="1" parent="1" source="ZAy9PFKj7g4toUoKisVz-14" target="ZAy9PFKj7g4toUoKisVz-19">
          <mxGeometry relative="1" as="geometry" />
        </mxCell>
        <mxCell id="ZAy9PFKj7g4toUoKisVz-46" style="rounded=0;orthogonalLoop=1;jettySize=auto;html=1;entryX=0;entryY=0.5;entryDx=0;entryDy=0;endSize=0;startSize=0;" edge="1" parent="1" source="ZAy9PFKj7g4toUoKisVz-14" target="ZAy9PFKj7g4toUoKisVz-17">
          <mxGeometry relative="1" as="geometry" />
        </mxCell>
        <mxCell id="ZAy9PFKj7g4toUoKisVz-14" value="" style="ellipse;whiteSpace=wrap;html=1;aspect=fixed;fillColor=#1CF0FF;strokeColor=#006EAF;fontColor=#ffffff;" vertex="1" parent="1">
          <mxGeometry x="180" y="400" width="60" height="60" as="geometry" />
        </mxCell>
        <mxCell id="ZAy9PFKj7g4toUoKisVz-53" style="rounded=0;orthogonalLoop=1;jettySize=auto;html=1;entryX=0;entryY=0.5;entryDx=0;entryDy=0;endSize=0;startSize=0;" edge="1" parent="1" source="ZAy9PFKj7g4toUoKisVz-15" target="ZAy9PFKj7g4toUoKisVz-21">
          <mxGeometry relative="1" as="geometry" />
        </mxCell>
        <mxCell id="ZAy9PFKj7g4toUoKisVz-54" style="rounded=0;orthogonalLoop=1;jettySize=auto;html=1;entryX=0;entryY=0.5;entryDx=0;entryDy=0;endSize=0;startSize=0;" edge="1" parent="1" source="ZAy9PFKj7g4toUoKisVz-15" target="ZAy9PFKj7g4toUoKisVz-22">
          <mxGeometry relative="1" as="geometry" />
        </mxCell>
        <mxCell id="ZAy9PFKj7g4toUoKisVz-55" style="rounded=0;orthogonalLoop=1;jettySize=auto;html=1;entryX=0;entryY=0.5;entryDx=0;entryDy=0;endSize=0;startSize=0;" edge="1" parent="1" source="ZAy9PFKj7g4toUoKisVz-15" target="ZAy9PFKj7g4toUoKisVz-20">
          <mxGeometry relative="1" as="geometry" />
        </mxCell>
        <mxCell id="ZAy9PFKj7g4toUoKisVz-56" style="rounded=0;orthogonalLoop=1;jettySize=auto;html=1;entryX=0;entryY=0.5;entryDx=0;entryDy=0;endSize=0;startSize=0;" edge="1" parent="1" source="ZAy9PFKj7g4toUoKisVz-15" target="ZAy9PFKj7g4toUoKisVz-18">
          <mxGeometry relative="1" as="geometry" />
        </mxCell>
        <mxCell id="ZAy9PFKj7g4toUoKisVz-57" style="rounded=0;orthogonalLoop=1;jettySize=auto;html=1;entryX=0;entryY=0.5;entryDx=0;entryDy=0;endSize=0;startSize=0;" edge="1" parent="1" source="ZAy9PFKj7g4toUoKisVz-15" target="ZAy9PFKj7g4toUoKisVz-19">
          <mxGeometry relative="1" as="geometry" />
        </mxCell>
        <mxCell id="ZAy9PFKj7g4toUoKisVz-58" style="rounded=0;orthogonalLoop=1;jettySize=auto;html=1;entryX=0;entryY=0.5;entryDx=0;entryDy=0;endSize=0;startSize=0;" edge="1" parent="1" source="ZAy9PFKj7g4toUoKisVz-15" target="ZAy9PFKj7g4toUoKisVz-17">
          <mxGeometry relative="1" as="geometry" />
        </mxCell>
        <mxCell id="ZAy9PFKj7g4toUoKisVz-15" value="" style="ellipse;whiteSpace=wrap;html=1;aspect=fixed;fillColor=#1CF0FF;strokeColor=#006EAF;fontColor=#ffffff;" vertex="1" parent="1">
          <mxGeometry x="180" y="560" width="60" height="60" as="geometry" />
        </mxCell>
        <mxCell id="ZAy9PFKj7g4toUoKisVz-47" style="rounded=0;orthogonalLoop=1;jettySize=auto;html=1;entryX=0;entryY=0.5;entryDx=0;entryDy=0;endSize=0;startSize=0;" edge="1" parent="1" source="ZAy9PFKj7g4toUoKisVz-16" target="ZAy9PFKj7g4toUoKisVz-21">
          <mxGeometry relative="1" as="geometry" />
        </mxCell>
        <mxCell id="ZAy9PFKj7g4toUoKisVz-48" style="rounded=0;orthogonalLoop=1;jettySize=auto;html=1;entryX=0;entryY=0.5;entryDx=0;entryDy=0;endSize=0;startSize=0;" edge="1" parent="1" source="ZAy9PFKj7g4toUoKisVz-16" target="ZAy9PFKj7g4toUoKisVz-22">
          <mxGeometry relative="1" as="geometry" />
        </mxCell>
        <mxCell id="ZAy9PFKj7g4toUoKisVz-49" style="rounded=0;orthogonalLoop=1;jettySize=auto;html=1;entryX=0;entryY=0.5;entryDx=0;entryDy=0;endSize=0;startSize=0;" edge="1" parent="1" source="ZAy9PFKj7g4toUoKisVz-16" target="ZAy9PFKj7g4toUoKisVz-20">
          <mxGeometry relative="1" as="geometry" />
        </mxCell>
        <mxCell id="ZAy9PFKj7g4toUoKisVz-50" style="rounded=0;orthogonalLoop=1;jettySize=auto;html=1;entryX=0;entryY=0.5;entryDx=0;entryDy=0;endSize=0;startSize=0;" edge="1" parent="1" source="ZAy9PFKj7g4toUoKisVz-16" target="ZAy9PFKj7g4toUoKisVz-18">
          <mxGeometry relative="1" as="geometry" />
        </mxCell>
        <mxCell id="ZAy9PFKj7g4toUoKisVz-51" style="rounded=0;orthogonalLoop=1;jettySize=auto;html=1;entryX=0;entryY=0.5;entryDx=0;entryDy=0;endSize=0;startSize=0;" edge="1" parent="1" source="ZAy9PFKj7g4toUoKisVz-16" target="ZAy9PFKj7g4toUoKisVz-19">
          <mxGeometry relative="1" as="geometry" />
        </mxCell>
        <mxCell id="ZAy9PFKj7g4toUoKisVz-52" style="rounded=0;orthogonalLoop=1;jettySize=auto;html=1;entryX=0;entryY=0.5;entryDx=0;entryDy=0;endSize=0;startSize=0;" edge="1" parent="1" source="ZAy9PFKj7g4toUoKisVz-16" target="ZAy9PFKj7g4toUoKisVz-17">
          <mxGeometry relative="1" as="geometry" />
        </mxCell>
        <mxCell id="ZAy9PFKj7g4toUoKisVz-16" value="" style="ellipse;whiteSpace=wrap;html=1;aspect=fixed;fillColor=#1CF0FF;strokeColor=#006EAF;fontColor=#ffffff;" vertex="1" parent="1">
          <mxGeometry x="180" y="480" width="60" height="60" as="geometry" />
        </mxCell>
        <mxCell id="ZAy9PFKj7g4toUoKisVz-17" value="" style="ellipse;whiteSpace=wrap;html=1;aspect=fixed;fillColor=#CCCCCC;" vertex="1" parent="1">
          <mxGeometry x="370" y="90" width="60" height="60" as="geometry" />
        </mxCell>
        <mxCell id="ZAy9PFKj7g4toUoKisVz-18" value="" style="ellipse;whiteSpace=wrap;html=1;aspect=fixed;fillColor=#CCCCCC;" vertex="1" parent="1">
          <mxGeometry x="370" y="250" width="60" height="60" as="geometry" />
        </mxCell>
        <mxCell id="ZAy9PFKj7g4toUoKisVz-19" value="" style="ellipse;whiteSpace=wrap;html=1;aspect=fixed;fillColor=#CCCCCC;" vertex="1" parent="1">
          <mxGeometry x="370" y="170" width="60" height="60" as="geometry" />
        </mxCell>
        <mxCell id="ZAy9PFKj7g4toUoKisVz-20" value="" style="ellipse;whiteSpace=wrap;html=1;aspect=fixed;fillColor=#CCCCCC;" vertex="1" parent="1">
          <mxGeometry x="370" y="330" width="60" height="60" as="geometry" />
        </mxCell>
        <mxCell id="ZAy9PFKj7g4toUoKisVz-21" value="" style="ellipse;whiteSpace=wrap;html=1;aspect=fixed;fillColor=#CCCCCC;" vertex="1" parent="1">
          <mxGeometry x="370" y="640" width="60" height="60" as="geometry" />
        </mxCell>
        <mxCell id="ZAy9PFKj7g4toUoKisVz-22" value="" style="ellipse;whiteSpace=wrap;html=1;aspect=fixed;fillColor=#CCCCCC;" vertex="1" parent="1">
          <mxGeometry x="370" y="410" width="60" height="60" as="geometry" />
        </mxCell>
        <mxCell id="ZAy9PFKj7g4toUoKisVz-59" value="" style="ellipse;whiteSpace=wrap;html=1;aspect=fixed;fillColor=#000000;strokeColor=#000000;fontColor=#ffffff;" vertex="1" parent="1">
          <mxGeometry x="505" y="532" width="10" height="10" as="geometry" />
        </mxCell>
        <mxCell id="ZAy9PFKj7g4toUoKisVz-60" value="" style="ellipse;whiteSpace=wrap;html=1;aspect=fixed;fillColor=#000000;strokeColor=#000000;fontColor=#ffffff;" vertex="1" parent="1">
          <mxGeometry x="505" y="547" width="10" height="10" as="geometry" />
        </mxCell>
        <mxCell id="ZAy9PFKj7g4toUoKisVz-61" value="" style="ellipse;whiteSpace=wrap;html=1;aspect=fixed;fillColor=#000000;strokeColor=#000000;fontColor=#ffffff;" vertex="1" parent="1">
          <mxGeometry x="505" y="562" width="10" height="10" as="geometry" />
        </mxCell>
        <mxCell id="ZAy9PFKj7g4toUoKisVz-62" value="" style="ellipse;whiteSpace=wrap;html=1;aspect=fixed;fillColor=#CCCCCC;" vertex="1" parent="1">
          <mxGeometry x="480" y="90" width="60" height="60" as="geometry" />
        </mxCell>
        <mxCell id="ZAy9PFKj7g4toUoKisVz-63" value="" style="ellipse;whiteSpace=wrap;html=1;aspect=fixed;fillColor=#CCCCCC;" vertex="1" parent="1">
          <mxGeometry x="480" y="250" width="60" height="60" as="geometry" />
        </mxCell>
        <mxCell id="ZAy9PFKj7g4toUoKisVz-64" value="" style="ellipse;whiteSpace=wrap;html=1;aspect=fixed;fillColor=#CCCCCC;" vertex="1" parent="1">
          <mxGeometry x="480" y="170" width="60" height="60" as="geometry" />
        </mxCell>
        <mxCell id="ZAy9PFKj7g4toUoKisVz-65" value="" style="ellipse;whiteSpace=wrap;html=1;aspect=fixed;fillColor=#CCCCCC;" vertex="1" parent="1">
          <mxGeometry x="480" y="330" width="60" height="60" as="geometry" />
        </mxCell>
        <mxCell id="ZAy9PFKj7g4toUoKisVz-66" value="" style="ellipse;whiteSpace=wrap;html=1;aspect=fixed;fillColor=#CCCCCC;" vertex="1" parent="1">
          <mxGeometry x="480" y="640" width="60" height="60" as="geometry" />
        </mxCell>
        <mxCell id="ZAy9PFKj7g4toUoKisVz-67" value="" style="ellipse;whiteSpace=wrap;html=1;aspect=fixed;fillColor=#CCCCCC;" vertex="1" parent="1">
          <mxGeometry x="480" y="410" width="60" height="60" as="geometry" />
        </mxCell>
      </root>
    </mxGraphModel>
  </diagram>
</mxfile>
